STARTFONT 2.1
COMMENT Exported by Fony v1.4.7
FONT 14X20TG
SIZE 20 96 96
FONTBOUNDINGBOX 14 19 0 -13
STARTPROPERTIES 6
COPYRIGHT "Tangar @ http://tangar.info for TomeNET @ http://tomenet.eu"
RESOLUTION_X 96
RESOLUTION_Y 96
FONT_ASCENT 7
FONT_DESCENT 13
DEFAULT_CHAR 31
ENDPROPERTIES
CHARS 256
STARTCHAR 000
ENCODING 0
SWIDTH 1008 0
DWIDTH 14 0
BBX 14 20 0 -13
BITMAP
8000
4004
0008
2000
1010
0020
0800
0440
0080
0200
0100
0200
0080
0440
0800
0020
1010
2000
0008
4004
ENDCHAR
STARTCHAR 001
ENCODING 1
SWIDTH 1008 0
DWIDTH 14 0
BBX 13 1 1 -12
BITMAP
9248
ENDCHAR
STARTCHAR 002
ENCODING 2
SWIDTH 1008 0
DWIDTH 14 0
BBX 14 20 0 -13
BITMAP
FFFC
FFFC
FFFC
FFFC
FFFC
FFFC
FFFC
FFFC
FFFC
FFFC
FFFC
FFFC
FFFC
FFFC
FFFC
FFFC
FFFC
FFFC
FFFC
FFFC
ENDCHAR
STARTCHAR 003
ENCODING 3
SWIDTH 1008 0
DWIDTH 14 0
BBX 12 1 1 -11
BITMAP
EDB0
ENDCHAR
STARTCHAR 004
ENCODING 4
SWIDTH 1008 0
DWIDTH 14 0
BBX 4 4 5 -12
BITMAP
60
D0
F0
60
ENDCHAR
STARTCHAR 005
ENCODING 5
SWIDTH 1008 0
DWIDTH 14 0
BBX 13 3 1 -11
BITMAP
9248
0000
4440
ENDCHAR
STARTCHAR 006
ENCODING 6
SWIDTH 1008 0
DWIDTH 14 0
BBX 13 5 1 -11
BITMAP
1040
28A0
9248
0500
2210
ENDCHAR
STARTCHAR 007
ENCODING 7
SWIDTH 1008 0
DWIDTH 14 0
BBX 13 1 0 -11
BITMAP
F7B8
ENDCHAR
STARTCHAR 008
ENCODING 8
SWIDTH 1008 0
DWIDTH 14 0
BBX 14 3 0 -4
BITMAP
4210
A528
18C4
ENDCHAR
STARTCHAR 009
ENCODING 9
SWIDTH 1008 0
DWIDTH 14 0
BBX 5 3 5 -5
BITMAP
88
D8
70
ENDCHAR
STARTCHAR 010
ENCODING 10
SWIDTH 1008 0
DWIDTH 14 0
BBX 14 19 0 -13
BITMAP
FC7C
FEFC
FEFC
FC7C
0000
E3FC
F7FC
F7FC
E3FC
0000
FC7C
FEFC
FEFC
FC7C
0000
E3FC
F7FC
F7FC
F7FC
ENDCHAR
STARTCHAR 011
ENCODING 11
SWIDTH 1008 0
DWIDTH 14 0
BBX 14 19 0 -13
BITMAP
FEFC
FEFC
FEFC
FEFC
0000
F7FC
F7FC
F7FC
F7FC
0000
FEFC
FEFC
FEFC
FEFC
0000
F7FC
F7FC
F7FC
F7FC
ENDCHAR
STARTCHAR 012
ENCODING 12
SWIDTH 1008 0
DWIDTH 14 0
BBX 14 18 0 -13
BITMAP
FEFC
F6FC
FEFC
0000
F7FC
F67C
F67C
F7FC
F7FC
0000
FEFC
CEFC
FEFC
0000
0000
F7FC
F5FC
F7FC
ENDCHAR
STARTCHAR 013
ENCODING 13
SWIDTH 1008 0
DWIDTH 14 0
BBX 14 20 0 -13
BITMAP
FFFC
7BFC
301C
37DC
C820
D03C
583C
583C
1FFC
8FC0
D7FC
583C
4FEC
2FDC
87C0
F03C
FFFC
7BDC
3188
8420
ENDCHAR
STARTCHAR 014
ENCODING 14
SWIDTH 1008 0
DWIDTH 14 0
BBX 14 20 0 -13
BITMAP
0040
00C0
00E0
11E0
33B0
3B70
2BF0
2FF8
5CF8
7BFC
F334
E4BC
ECFC
CFC8
8FC0
1FE0
1FF0
3FF0
3FF0
FFFC
ENDCHAR
STARTCHAR 015
ENCODING 15
SWIDTH 1008 0
DWIDTH 14 0
BBX 14 19 0 -13
BITMAP
0600
0F80
0B80
1CC0
3CC0
3FC0
3FC0
7E00
FDC0
DBE0
F6F0
FFF0
0FF8
1FF8
3FF8
3FFC
3FCC
7FFC
7FFC
ENDCHAR
STARTCHAR 016
ENCODING 16
SWIDTH 1008 0
DWIDTH 14 0
BBX 14 20 0 -13
BITMAP
FFFC
FFFC
C4DC
FFFC
D34C
FFFC
CD1C
FFFC
F46C
FFFC
D1AC
FFFC
C68C
FFFC
DA2C
FFFC
E88C
FFFC
FFFC
FFFC
ENDCHAR
STARTCHAR 017
ENCODING 17
SWIDTH 1008 0
DWIDTH 14 0
BBX 14 20 0 -13
BITMAP
FFFC
FFFC
C4DC
C9AC
D34C
E68C
CD1C
DA3C
F46C
E8DC
D1AC
E34C
C68C
CD1C
DA2C
F44C
E88C
D10C
FFFC
FFFC
ENDCHAR
STARTCHAR 018
ENCODING 18
SWIDTH 1008 0
DWIDTH 14 0
BBX 14 20 0 -13
BITMAP
FFFC
FFFC
C60C
CA0C
D20C
E60C
CE0C
DA0C
F60C
EA0C
D20C
E20C
C60C
CE0C
DA0C
F60C
EA0C
D20C
FFFC
FFFC
ENDCHAR
STARTCHAR 019
ENCODING 19
SWIDTH 1008 0
DWIDTH 14 0
BBX 14 20 0 -13
BITMAP
FFFC
FFFC
D24C
FFFC
C92C
FFFC
FFFC
C00C
FFFC
D3BC
FFFC
DBAC
FFFC
F3EC
FFFC
C30C
FFFC
C78C
FFFC
FFFC
ENDCHAR
STARTCHAR 020
ENCODING 20
SWIDTH 1008 0
DWIDTH 14 0
BBX 14 20 0 -13
BITMAP
FFFC
FFFC
D24C
E49C
C92C
D24C
FFFC
C00C
C32C
D3BC
D76C
DBAC
D73C
F3EC
DF4C
C30C
CFCC
C78C
FFFC
FFFC
ENDCHAR
STARTCHAR 021
ENCODING 21
SWIDTH 1008 0
DWIDTH 14 0
BBX 14 20 0 -13
BITMAP
FFFC
FFFC
D20C
E60C
CA0C
D20C
FFFC
C00C
C32C
D3BC
D76C
DBAC
D73C
F3EC
DF4C
C30C
CFCC
C78C
FFFC
FFFC
ENDCHAR
STARTCHAR 022
ENCODING 22
SWIDTH 1008 0
DWIDTH 14 0
BBX 14 20 0 -13
BITMAP
8000
4004
0008
2000
1010
0020
0800
0440
0080
0200
0100
0200
0080
0440
0800
0020
1010
2000
0008
4004
ENDCHAR
STARTCHAR 023
ENCODING 23
SWIDTH 1008 0
DWIDTH 14 0
BBX 14 20 0 -13
BITMAP
8000
4004
0008
2000
1010
0020
0800
0440
0080
0200
0100
0200
0080
0440
0800
0020
1010
2000
0008
4004
ENDCHAR
STARTCHAR 024
ENCODING 24
SWIDTH 1008 0
DWIDTH 14 0
BBX 14 20 0 -13
BITMAP
8000
4004
0008
2000
1010
0020
0800
0440
0080
0200
0100
0200
0080
0440
0800
0020
1010
2000
0008
4004
ENDCHAR
STARTCHAR 025
ENCODING 25
SWIDTH 1008 0
DWIDTH 14 0
BBX 14 20 0 -13
BITMAP
8000
4004
0008
2000
1010
0020
0800
0440
0080
0200
0100
0200
0080
0440
0800
0020
1010
2000
0008
4004
ENDCHAR
STARTCHAR 026
ENCODING 26
SWIDTH 1008 0
DWIDTH 14 0
BBX 14 20 0 -13
BITMAP
8000
4004
0008
2000
1010
0020
0800
0440
0080
0200
0100
0200
0080
0440
0800
0020
1010
2000
0008
4004
ENDCHAR
STARTCHAR 027
ENCODING 27
SWIDTH 1008 0
DWIDTH 14 0
BBX 14 20 0 -13
BITMAP
8000
4004
0008
2000
1010
0020
0800
0440
0080
0200
0100
0200
0080
0440
0800
0020
1010
2000
0008
4004
ENDCHAR
STARTCHAR 028
ENCODING 28
SWIDTH 1008 0
DWIDTH 14 0
BBX 14 20 0 -13
BITMAP
8000
4004
0008
2000
1010
0020
0800
0440
0080
0200
0100
0200
0080
0440
0800
0020
1010
2000
0008
4004
ENDCHAR
STARTCHAR 029
ENCODING 29
SWIDTH 1008 0
DWIDTH 14 0
BBX 14 20 0 -13
BITMAP
8000
4004
0008
2000
1010
0020
0800
0440
0080
0200
0100
0200
0080
0440
0800
0020
1010
2000
0008
4004
ENDCHAR
STARTCHAR 030
ENCODING 30
SWIDTH 1008 0
DWIDTH 14 0
BBX 14 20 0 -13
BITMAP
8000
4004
0008
2000
1010
0020
0800
0440
0080
0200
0100
0200
0080
0440
0800
0020
1010
2000
0008
4004
ENDCHAR
STARTCHAR 031
ENCODING 31
SWIDTH 1008 0
DWIDTH 14 0
BBX 14 20 0 -13
BITMAP
8000
4004
0008
2000
1010
0020
0800
0440
0080
0200
0100
0200
0080
0440
0800
0020
1010
2000
0008
4004
ENDCHAR
STARTCHAR 032
ENCODING 32
SWIDTH 1008 0
DWIDTH 14 0
BBX 0 0 0 0
BITMAP
ENDCHAR
STARTCHAR 033
ENCODING 33
SWIDTH 1008 0
DWIDTH 14 0
BBX 5 16 5 -11
BITMAP
60
70
78
F8
D8
D8
F8
F8
F0
F0
60
60
00
60
60
60
ENDCHAR
STARTCHAR 034
ENCODING 34
SWIDTH 1008 0
DWIDTH 14 0
BBX 7 4 4 -1
BITMAP
EE
EE
EE
C6
ENDCHAR
STARTCHAR 035
ENCODING 35
SWIDTH 1008 0
DWIDTH 14 0
BBX 10 10 2 -8
BITMAP
3300
3300
FFC0
FFC0
33C0
3300
FFC0
FFC0
3300
3300
ENDCHAR
STARTCHAR 036
ENCODING 36
SWIDTH 1008 0
DWIDTH 14 0
BBX 10 18 2 -13
BITMAP
0300
0300
1F80
3FC0
76C0
6640
7600
3E00
1F80
0DC0
0CC0
CCC0
CCC0
7DC0
3F80
0E00
0C00
0800
ENDCHAR
STARTCHAR 037
ENCODING 37
SWIDTH 1008 0
DWIDTH 14 0
BBX 12 14 2 -10
BITMAP
0080
6080
F080
9300
9300
F300
6600
0CC0
0D30
0D30
1930
30E0
3000
6000
ENDCHAR
STARTCHAR 038
ENCODING 38
SWIDTH 1008 0
DWIDTH 14 0
BBX 11 13 2 -10
BITMAP
0F00
1F80
3080
3180
1300
1E00
3C00
6720
C360
C1C0
E1C0
3F60
3E20
ENDCHAR
STARTCHAR 039
ENCODING 39
SWIDTH 1008 0
DWIDTH 14 0
BBX 4 7 5 -4
BITMAP
70
70
70
70
60
E0
80
ENDCHAR
STARTCHAR 040
ENCODING 40
SWIDTH 1008 0
DWIDTH 14 0
BBX 4 15 6 -11
BITMAP
10
30
20
60
C0
C0
C0
C0
C0
C0
C0
60
20
30
10
ENDCHAR
STARTCHAR 041
ENCODING 41
SWIDTH 1008 0
DWIDTH 14 0
BBX 5 17 4 -12
BITMAP
80
C0
60
20
30
30
18
18
18
18
18
30
30
20
60
C0
80
ENDCHAR
STARTCHAR 042
ENCODING 42
SWIDTH 1008 0
DWIDTH 14 0
BBX 8 9 3 -8
BITMAP
18
DB
7E
3C
FF
3C
7E
DB
89
ENDCHAR
STARTCHAR 043
ENCODING 43
SWIDTH 1008 0
DWIDTH 14 0
BBX 11 11 2 -9
BITMAP
0E00
0E00
0E00
0E00
FFE0
FFE0
FFE0
0E00
0E00
0E00
0E00
ENDCHAR
STARTCHAR 044
ENCODING 44
SWIDTH 1008 0
DWIDTH 14 0
BBX 6 7 4 -12
BITMAP
30
38
7C
7C
30
70
C0
ENDCHAR
STARTCHAR 045
ENCODING 45
SWIDTH 1008 0
DWIDTH 14 0
BBX 11 2 2 -5
BITMAP
FFE0
FFE0
ENDCHAR
STARTCHAR 046
ENCODING 46
SWIDTH 1008 0
DWIDTH 14 0
BBX 4 3 5 -5
BITMAP
60
F0
60
ENDCHAR
STARTCHAR 047
ENCODING 47
SWIDTH 1008 0
DWIDTH 14 0
BBX 8 14 2 -10
BITMAP
01
03
07
06
06
0C
0C
18
38
30
60
60
C0
C0
ENDCHAR
STARTCHAR 048
ENCODING 48
SWIDTH 1008 0
DWIDTH 14 0
BBX 9 13 3 -10
BITMAP
1E00
3F00
7B00
7100
6180
6380
6380
C700
C700
C600
EE00
7800
7800
ENDCHAR
STARTCHAR 049
ENCODING 49
SWIDTH 1008 0
DWIDTH 14 0
BBX 6 13 4 -10
BITMAP
0C
1C
3C
7C
18
18
18
38
38
38
38
7C
FC
ENDCHAR
STARTCHAR 050
ENCODING 50
SWIDTH 1008 0
DWIDTH 14 0
BBX 10 14 2 -10
BITMAP
0F80
1FC0
3CC0
30C0
20C0
01C0
0180
0300
0E00
0C00
3800
30C0
FFC0
FFC0
ENDCHAR
STARTCHAR 051
ENCODING 51
SWIDTH 1008 0
DWIDTH 14 0
BBX 9 13 2 -10
BITMAP
0F00
1F00
3380
2180
0380
0300
0F00
0180
0080
C180
E380
3F00
3C00
ENDCHAR
STARTCHAR 052
ENCODING 52
SWIDTH 1008 0
DWIDTH 14 0
BBX 7 13 4 -10
BITMAP
40
42
C6
C6
CC
FC
FC
0C
0C
0C
0C
18
18
ENDCHAR
STARTCHAR 053
ENCODING 53
SWIDTH 1008 0
DWIDTH 14 0
BBX 10 13 2 -10
BITMAP
0FC0
0FC0
1800
3000
3C00
3E00
0300
0100
0100
C300
E300
7E00
3C00
ENDCHAR
STARTCHAR 054
ENCODING 54
SWIDTH 1008 0
DWIDTH 14 0
BBX 8 13 3 -10
BITMAP
1E
3F
61
61
C0
DC
FE
E3
C1
C3
E6
7E
38
ENDCHAR
STARTCHAR 055
ENCODING 55
SWIDTH 1008 0
DWIDTH 14 0
BBX 10 13 2 -10
BITMAP
3FC0
7FC0
C180
C180
0300
0300
0600
0C00
0C00
1C00
1C00
3800
3800
ENDCHAR
STARTCHAR 056
ENCODING 56
SWIDTH 1008 0
DWIDTH 14 0
BBX 8 13 3 -10
BITMAP
1E
3F
63
63
76
3E
7C
46
C6
86
C6
7C
78
ENDCHAR
STARTCHAR 057
ENCODING 57
SWIDTH 1008 0
DWIDTH 14 0
BBX 9 13 3 -10
BITMAP
0E00
1F00
7380
7180
6180
7380
3F00
0600
0600
0600
8E00
F800
7000
ENDCHAR
STARTCHAR 058
ENCODING 58
SWIDTH 1008 0
DWIDTH 14 0
BBX 3 8 6 -10
BITMAP
E0
E0
E0
00
00
E0
E0
E0
ENDCHAR
STARTCHAR 059
ENCODING 59
SWIDTH 1008 0
DWIDTH 14 0
BBX 5 10 4 -13
BITMAP
38
38
38
00
00
38
38
10
70
C0
ENDCHAR
STARTCHAR 060
ENCODING 60
SWIDTH 1008 0
DWIDTH 14 0
BBX 14 17 0 -12
BITMAP
000C
000C
00CC
00CC
06CC
06CC
36CC
B6CC
B6CC
B6CC
36CC
06CC
06CC
00CC
00CC
000C
000C
ENDCHAR
STARTCHAR 061
ENCODING 61
SWIDTH 1008 0
DWIDTH 14 0
BBX 11 6 2 -7
BITMAP
FFE0
FFE0
0000
0000
FFE0
FFE0
ENDCHAR
STARTCHAR 062
ENCODING 62
SWIDTH 1008 0
DWIDTH 14 0
BBX 13 17 1 -12
BITMAP
C000
C000
D800
D800
D980
D980
D9A0
D9A8
D9A8
D9A8
D9A0
D980
D980
D800
D800
C000
C000
ENDCHAR
STARTCHAR 063
ENCODING 63
SWIDTH 1008 0
DWIDTH 14 0
BBX 9 15 3 -11
BITMAP
1E00
7F00
6300
E180
C180
0180
0300
0600
1C00
1800
1800
0000
0000
1800
1800
ENDCHAR
STARTCHAR 064
ENCODING 64
SWIDTH 1008 0
DWIDTH 14 0
BBX 11 19 2 -13
BITMAP
0E00
1F00
1F00
1F00
0E00
0F00
3F80
7FC0
7FC0
CF60
CF60
DF60
1F00
1B00
3B80
3180
3180
3180
70C0
ENDCHAR
STARTCHAR 065
ENCODING 65
SWIDTH 1008 0
DWIDTH 14 0
BBX 12 15 2 -10
BITMAP
3C00
7C00
FF00
CF00
1F80
1980
30C0
30C0
30C0
7FC0
7FE0
E0E0
E0E0
E0F0
E0F0
ENDCHAR
STARTCHAR 066
ENCODING 66
SWIDTH 1008 0
DWIDTH 14 0
BBX 10 13 2 -10
BITMAP
FF00
7F00
7180
7180
7300
7F00
7FC0
7040
7040
70C0
7FC0
7F00
7E00
ENDCHAR
STARTCHAR 067
ENCODING 67
SWIDTH 1008 0
DWIDTH 14 0
BBX 11 14 2 -10
BITMAP
0F80
3FC0
7FC0
F0E0
E0E0
C080
C000
C000
C000
C000
F040
F0C0
3F80
1F00
ENDCHAR
STARTCHAR 068
ENCODING 68
SWIDTH 1008 0
DWIDTH 14 0
BBX 12 14 2 -10
BITMAP
FF00
FFC0
FFC0
C0E0
C0F0
C070
C070
C070
C070
C070
C0F0
C0E0
FFC0
FFC0
ENDCHAR
STARTCHAR 069
ENCODING 69
SWIDTH 1008 0
DWIDTH 14 0
BBX 10 16 2 -11
BITMAP
0040
FFC0
7FC0
7FC0
6000
6000
6000
7C00
7C00
6000
6000
6000
6000
7FC0
7FC0
0040
ENDCHAR
STARTCHAR 070
ENCODING 70
SWIDTH 1008 0
DWIDTH 14 0
BBX 10 14 3 -10
BITMAP
FFC0
FFC0
FFC0
E000
E000
E000
F800
FE00
E000
E000
E000
E000
E000
E000
ENDCHAR
STARTCHAR 071
ENCODING 71
SWIDTH 1008 0
DWIDTH 14 0
BBX 12 15 1 -10
BITMAP
0F00
3FC0
7FE0
78E0
F070
E000
C000
C000
C0C0
C3F0
C370
F030
F860
7FE0
3FC0
ENDCHAR
STARTCHAR 072
ENCODING 72
SWIDTH 1008 0
DWIDTH 14 0
BBX 11 14 2 -10
BITMAP
E0E0
E0C0
E0C0
E0C0
E0C0
E0C0
FFC0
FFC0
E0C0
E0C0
E0C0
E0C0
E0C0
E0C0
ENDCHAR
STARTCHAR 073
ENCODING 73
SWIDTH 1008 0
DWIDTH 14 0
BBX 6 14 4 -10
BITMAP
FC
FC
30
30
30
30
30
30
30
30
30
30
FC
FC
ENDCHAR
STARTCHAR 074
ENCODING 74
SWIDTH 1008 0
DWIDTH 14 0
BBX 11 15 2 -10
BITMAP
01E0
01E0
00C0
00C0
00C0
00C0
00C0
00C0
00C0
E0C0
E0C0
C0C0
E1C0
7FC0
3F80
ENDCHAR
STARTCHAR 075
ENCODING 75
SWIDTH 1008 0
DWIDTH 14 0
BBX 13 15 0 -10
BITMAP
0060
78E0
F990
7190
6380
6300
6600
6E00
7E00
7E00
6708
6398
6198
71F0
71F0
ENDCHAR
STARTCHAR 076
ENCODING 76
SWIDTH 1008 0
DWIDTH 14 0
BBX 10 14 2 -10
BITMAP
F000
7000
7000
7000
7000
7000
7000
7000
7000
7000
70C0
70C0
7FC0
7FC0
ENDCHAR
STARTCHAR 077
ENCODING 77
SWIDTH 1008 0
DWIDTH 14 0
BBX 13 14 0 -10
BITMAP
2030
3070
3070
3870
3870
7CD8
6CD8
6798
6798
6398
6118
6118
F038
F038
ENDCHAR
STARTCHAR 078
ENCODING 78
SWIDTH 1008 0
DWIDTH 14 0
BBX 12 15 2 -11
BITMAP
0030
C0E0
E0E0
F0E0
F8E0
DCE0
CCE0
CEE0
C7C0
C3C0
C1C0
C1C0
C0C0
C0C0
8000
ENDCHAR
STARTCHAR 079
ENCODING 79
SWIDTH 1008 0
DWIDTH 14 0
BBX 12 13 2 -10
BITMAP
1F00
3F80
FFC0
F0E0
E070
EC30
C030
C030
C030
E0E0
70C0
3F80
0F00
ENDCHAR
STARTCHAR 080
ENCODING 80
SWIDTH 1008 0
DWIDTH 14 0
BBX 10 14 2 -10
BITMAP
FF00
7F80
40C0
4040
4040
40C0
7FC0
7F00
4000
4000
4000
4000
4000
C000
ENDCHAR
STARTCHAR 081
ENCODING 81
SWIDTH 1008 0
DWIDTH 14 0
BBX 13 17 1 -12
BITMAP
1F00
7F80
7FC0
7FE0
E0E0
C060
C030
8010
8010
8310
C310
41A0
61E0
3FE0
1FE0
0018
0008
ENDCHAR
STARTCHAR 082
ENCODING 82
SWIDTH 1008 0
DWIDTH 14 0
BBX 12 15 2 -10
BITMAP
FE00
FF00
FF80
C380
C0C0
C0C0
C380
FF00
FF00
C700
C300
C3B0
E3F0
F1F0
F0E0
ENDCHAR
STARTCHAR 083
ENCODING 83
SWIDTH 1008 0
DWIDTH 14 0
BBX 12 14 1 -10
BITMAP
0700
1FC0
38E0
7030
6000
7000
3F00
0FC0
0060
0060
E060
70E0
3FC0
0F00
ENDCHAR
STARTCHAR 084
ENCODING 84
SWIDTH 1008 0
DWIDTH 14 0
BBX 12 15 1 -10
BITMAP
8010
FFF0
FFF0
FFF0
0F00
0F00
0F00
0F00
0F00
0F00
0F00
0F00
0F00
0F00
1F00
ENDCHAR
STARTCHAR 085
ENCODING 85
SWIDTH 1008 0
DWIDTH 14 0
BBX 11 14 2 -10
BITMAP
F1E0
E0E0
E0E0
E0E0
E0E0
E0E0
E0E0
E0E0
E0E0
E0E0
E0E0
70C0
3FC0
3F80
ENDCHAR
STARTCHAR 086
ENCODING 86
SWIDTH 1008 0
DWIDTH 14 0
BBX 12 14 2 -10
BITMAP
F0F0
E070
C070
C060
C0E0
60C0
60C0
3180
3180
3380
1B00
1B00
0E00
0C00
ENDCHAR
STARTCHAR 087
ENCODING 87
SWIDTH 1008 0
DWIDTH 14 0
BBX 10 13 2 -10
BITMAP
C0C0
C0C0
C0C0
C0C0
C0C0
C0C0
CCC0
DEC0
DEC0
F3C0
E1C0
C0C0
C0C0
ENDCHAR
STARTCHAR 088
ENCODING 88
SWIDTH 1008 0
DWIDTH 14 0
BBX 12 15 1 -10
BITMAP
E070
6060
30C0
39C0
1980
1F80
0F00
0F00
1F80
1980
39C0
30C0
6060
E070
E070
ENDCHAR
STARTCHAR 089
ENCODING 89
SWIDTH 1008 0
DWIDTH 14 0
BBX 12 15 1 -10
BITMAP
E030
6030
3060
3060
1840
18C0
0D80
0780
0700
0200
0200
0200
0200
0200
0F80
ENDCHAR
STARTCHAR 090
ENCODING 90
SWIDTH 1008 0
DWIDTH 14 0
BBX 12 14 1 -10
BITMAP
4000
FFE0
FFE0
01C0
0380
0700
0600
0C00
1C00
3800
3010
F030
FFE0
FFC0
ENDCHAR
STARTCHAR 091
ENCODING 91
SWIDTH 1008 0
DWIDTH 14 0
BBX 6 17 5 -12
BITMAP
FC
FC
FC
C0
C0
C0
C0
C0
C0
C0
C0
C0
C0
C0
FC
FC
FC
ENDCHAR
STARTCHAR 092
ENCODING 92
SWIDTH 1008 0
DWIDTH 14 0
BBX 8 14 3 -10
BITMAP
C0
C0
60
60
30
18
1C
0C
0E
06
06
03
03
01
ENDCHAR
STARTCHAR 093
ENCODING 93
SWIDTH 1008 0
DWIDTH 14 0
BBX 6 17 4 -12
BITMAP
FC
FC
FC
0C
0C
CC
CC
0C
0C
0C
0C
0C
0C
0C
FC
FC
FC
ENDCHAR
STARTCHAR 094
ENCODING 94
SWIDTH 1008 0
DWIDTH 14 0
BBX 11 8 2 -4
BITMAP
0400
0E00
0E00
1F00
1F80
3BC0
71C0
E0E0
ENDCHAR
STARTCHAR 095
ENCODING 95
SWIDTH 1008 0
DWIDTH 14 0
BBX 14 3 0 -12
BITMAP
FFFC
FFFC
FFFC
ENDCHAR
STARTCHAR 096
ENCODING 96
SWIDTH 1008 0
DWIDTH 14 0
BBX 4 7 5 -3
BITMAP
60
F0
F0
60
60
30
10
ENDCHAR
STARTCHAR 097
ENCODING 97
SWIDTH 1008 0
DWIDTH 14 0
BBX 9 9 3 -10
BITMAP
3900
7E00
E600
C600
C600
C600
EE80
7B80
3900
ENDCHAR
STARTCHAR 098
ENCODING 98
SWIDTH 1008 0
DWIDTH 14 0
BBX 10 15 2 -10
BITMAP
1000
3000
3000
F000
3000
3000
3000
3700
3FC0
38C0
38C0
30C0
38C0
3FC0
3F00
ENDCHAR
STARTCHAR 099
ENCODING 99
SWIDTH 1008 0
DWIDTH 14 0
BBX 8 9 4 -10
BITMAP
7E
FF
C0
C0
C0
C0
C3
FE
7C
ENDCHAR
STARTCHAR 100
ENCODING 100
SWIDTH 1008 0
DWIDTH 14 0
BBX 10 15 2 -10
BITMAP
0100
01C0
0180
0180
0180
0180
1D80
3F80
7380
C180
C180
C380
C380
7EC0
3CC0
ENDCHAR
STARTCHAR 101
ENCODING 101
SWIDTH 1008 0
DWIDTH 14 0
BBX 9 10 2 -10
BITMAP
1E00
7F00
7100
6300
FE00
F800
E000
6080
7F00
1E00
ENDCHAR
STARTCHAR 102
ENCODING 102
SWIDTH 1008 0
DWIDTH 14 0
BBX 9 14 3 -10
BITMAP
0E00
1F00
1900
1800
1800
1800
1880
FF80
9900
1900
1800
1800
1800
1C00
ENDCHAR
STARTCHAR 103
ENCODING 103
SWIDTH 1008 0
DWIDTH 14 0
BBX 9 14 3 -13
BITMAP
1C00
3F80
6300
6300
6600
7E00
3E00
0F80
1F00
6600
E600
8C00
D800
6000
ENDCHAR
STARTCHAR 104
ENCODING 104
SWIDTH 1008 0
DWIDTH 14 0
BBX 10 13 2 -10
BITMAP
4000
C000
4000
4000
4000
4000
4000
5E00
7E00
6600
4600
4640
47C0
ENDCHAR
STARTCHAR 105
ENCODING 105
SWIDTH 1008 0
DWIDTH 14 0
BBX 5 12 5 -10
BITMAP
60
00
00
60
60
60
60
60
60
60
70
F8
ENDCHAR
STARTCHAR 106
ENCODING 106
SWIDTH 1008 0
DWIDTH 14 0
BBX 9 16 2 -13
BITMAP
0180
0180
0000
0000
0100
0100
0100
0100
0100
0100
0100
8100
8300
C600
6E00
3800
ENDCHAR
STARTCHAR 107
ENCODING 107
SWIDTH 1008 0
DWIDTH 14 0
BBX 10 13 3 -12
BITMAP
6000
6000
6180
6380
6680
7800
7800
6E00
6600
63C0
61C0
C000
8000
ENDCHAR
STARTCHAR 108
ENCODING 108
SWIDTH 1008 0
DWIDTH 14 0
BBX 8 15 3 -10
BITMAP
0E
0F
1B
13
33
22
66
4C
78
E0
C0
46
4C
78
30
ENDCHAR
STARTCHAR 109
ENCODING 109
SWIDTH 1008 0
DWIDTH 14 0
BBX 11 9 2 -10
BITMAP
7FC0
FFE0
C460
C460
C460
C4E0
80C0
80C0
8080
ENDCHAR
STARTCHAR 110
ENCODING 110
SWIDTH 1008 0
DWIDTH 14 0
BBX 12 10 1 -10
BITMAP
3000
7F00
FF00
B300
3300
3300
3310
33B0
70F0
F0E0
ENDCHAR
STARTCHAR 111
ENCODING 111
SWIDTH 1008 0
DWIDTH 14 0
BBX 9 9 3 -10
BITMAP
1E00
7F00
6180
C180
C580
C180
6180
7F00
1E00
ENDCHAR
STARTCHAR 112
ENCODING 112
SWIDTH 1008 0
DWIDTH 14 0
BBX 7 11 4 -12
BITMAP
F8
FC
86
86
86
FC
F8
80
80
80
80
ENDCHAR
STARTCHAR 113
ENCODING 113
SWIDTH 1008 0
DWIDTH 14 0
BBX 10 12 3 -13
BITMAP
3900
7F00
E700
C100
C100
E700
7F00
3900
0100
0140
0140
0180
ENDCHAR
STARTCHAR 114
ENCODING 114
SWIDTH 1008 0
DWIDTH 14 0
BBX 9 9 4 -10
BITMAP
3000
3C00
7F80
6000
6000
6000
E000
C000
C000
ENDCHAR
STARTCHAR 115
ENCODING 115
SWIDTH 1008 0
DWIDTH 14 0
BBX 7 9 4 -10
BITMAP
7C
E6
C2
70
38
0C
04
8C
FC
ENDCHAR
STARTCHAR 116
ENCODING 116
SWIDTH 1008 0
DWIDTH 14 0
BBX 8 13 3 -10
BITMAP
18
18
18
18
FE
1F
18
18
18
18
19
1F
1E
ENDCHAR
STARTCHAR 117
ENCODING 117
SWIDTH 1008 0
DWIDTH 14 0
BBX 8 9 4 -10
BITMAP
C3
C3
C3
C3
C3
C3
C3
7E
3C
ENDCHAR
STARTCHAR 118
ENCODING 118
SWIDTH 1008 0
DWIDTH 14 0
BBX 11 9 2 -10
BITMAP
C060
6040
20C0
3080
3180
1900
0F00
0E00
0600
ENDCHAR
STARTCHAR 119
ENCODING 119
SWIDTH 1008 0
DWIDTH 14 0
BBX 13 9 1 -10
BITMAP
C018
6018
6030
2230
3720
15E0
1DE0
18C0
0880
ENDCHAR
STARTCHAR 120
ENCODING 120
SWIDTH 1008 0
DWIDTH 14 0
BBX 10 10 2 -10
BITMAP
40C0
6180
3300
1E00
0C00
0C00
1E00
3300
6180
C0C0
ENDCHAR
STARTCHAR 121
ENCODING 121
SWIDTH 1008 0
DWIDTH 14 0
BBX 9 12 3 -13
BITMAP
8080
C180
6180
2300
3300
1E00
0E00
0C00
0800
1800
B000
E000
ENDCHAR
STARTCHAR 122
ENCODING 122
SWIDTH 1008 0
DWIDTH 14 0
BBX 9 9 3 -10
BITMAP
FF80
0180
0700
0E00
1C00
3800
7000
FF80
FF80
ENDCHAR
STARTCHAR 123
ENCODING 123
SWIDTH 1008 0
DWIDTH 14 0
BBX 5 17 5 -12
BITMAP
38
20
20
20
20
20
20
60
C0
60
20
20
20
20
20
20
38
ENDCHAR
STARTCHAR 124
ENCODING 124
SWIDTH 1008 0
DWIDTH 14 0
BBX 1 16 7 -12
BITMAP
80
80
80
80
80
80
80
80
80
80
80
80
80
80
80
80
ENDCHAR
STARTCHAR 125
ENCODING 125
SWIDTH 1008 0
DWIDTH 14 0
BBX 7 17 3 -12
BITMAP
F0
38
18
18
08
08
0C
06
02
06
0C
08
08
08
18
18
F0
ENDCHAR
STARTCHAR 126
ENCODING 126
SWIDTH 1008 0
DWIDTH 14 0
BBX 11 8 2 -9
BITMAP
3860
3CE0
E7C0
0000
0000
7CE0
E7C0
C380
ENDCHAR
STARTCHAR 127
ENCODING 127
SWIDTH 1008 0
DWIDTH 14 0
BBX 14 20 0 -13
BITMAP
FFFC
FFFC
FFFC
FFFC
FFFC
FFFC
FFFC
FFFC
FFFC
FFFC
FFFC
FFFC
FFFC
FFFC
FFFC
FFFC
FFFC
FFFC
FFFC
FFFC
ENDCHAR
STARTCHAR 128
ENCODING 128
SWIDTH 1008 0
DWIDTH 14 0
BBX 14 17 0 -12
BITMAP
FFFC
F03C
C00C
CFEC
8384
8824
2828
2BA8
A828
2AA8
2AA0
2AAC
2AA0
2AA8
2AA8
AAA8
AAA8
ENDCHAR
STARTCHAR 129
ENCODING 129
SWIDTH 1008 0
DWIDTH 14 0
BBX 5 18 1 -13
BITMAP
E0
E0
E0
E0
E0
E0
E0
E0
E0
F8
F8
E0
E0
E0
E0
E0
E0
E0
ENDCHAR
STARTCHAR 130
ENCODING 130
SWIDTH 1008 0
DWIDTH 14 0
BBX 11 14 2 -10
BITMAP
F1E0
E0E0
C060
C060
C060
C060
C060
C060
C060
C060
E0E0
F0E0
7FC0
3FC0
ENDCHAR
STARTCHAR 131
ENCODING 131
SWIDTH 1008 0
DWIDTH 14 0
BBX 11 19 2 -13
BITMAP
0E00
1F00
1500
1F00
1B00
0E00
1F00
3F80
7FC0
EFE0
8E20
0E00
1F00
1F00
0400
0400
0400
0400
0400
ENDCHAR
STARTCHAR 132
ENCODING 132
SWIDTH 1008 0
DWIDTH 14 0
BBX 9 10 3 -8
BITMAP
0800
0800
2A00
2A00
AA80
AA80
AA80
2A00
0800
0800
ENDCHAR
STARTCHAR 133
ENCODING 133
SWIDTH 1008 0
DWIDTH 14 0
BBX 11 17 2 -13
BITMAP
0900
1F80
BB40
3FE0
6F20
7FC0
BF20
7CC0
EFE0
3FC0
FB20
DBC0
7F40
1D80
0C00
0C00
0C00
ENDCHAR
STARTCHAR 134
ENCODING 134
SWIDTH 1008 0
DWIDTH 14 0
BBX 11 14 2 -13
BITMAP
1000
4500
0100
1400
2F40
FFC0
7FE0
AFC0
ACC0
7FA0
B3C0
6E40
2D80
0C00
ENDCHAR
STARTCHAR 135
ENCODING 135
SWIDTH 1008 0
DWIDTH 14 0
BBX 11 17 2 -13
BITMAP
0800
3300
4F40
28A0
3B00
9400
6FC0
3C00
27C0
CC80
3C00
EF00
2C00
0C00
0C00
0C00
0C00
ENDCHAR
STARTCHAR 136
ENCODING 136
SWIDTH 1008 0
DWIDTH 14 0
BBX 14 20 0 -13
BITMAP
090C
0908
F230
F4C0
3530
0A08
EAC4
EAC4
1530
1530
CA0C
3500
CCCC
12F0
2500
C90C
C90C
16F0
16F0
290C
ENDCHAR
STARTCHAR 137
ENCODING 137
SWIDTH 1008 0
DWIDTH 14 0
BBX 13 20 1 -13
BITMAP
8000
8400
8000
4000
B420
8C20
8100
90C0
0140
9000
0210
A430
A040
C880
5140
0228
A450
D980
2200
2800
ENDCHAR
STARTCHAR 138
ENCODING 138
SWIDTH 1008 0
DWIDTH 14 0
BBX 14 4 0 -4
BITMAP
4210
E738
BDEC
18C4
ENDCHAR
STARTCHAR 139
ENCODING 139
SWIDTH 1008 0
DWIDTH 14 0
BBX 13 19 1 -13
BITMAP
1080
4200
0000
8488
1000
2120
0200
3BC0
7FE0
FEE0
8610
0210
0208
8200
1FE0
6210
0018
4018
7FF0
ENDCHAR
STARTCHAR 140
ENCODING 140
SWIDTH 1008 0
DWIDTH 14 0
BBX 14 13 0 -13
BITMAP
0030
00D0
06C8
3FF8
7CD8
6E9C
F31C
D9F8
DFE4
E200
5D18
FD18
1CD8
ENDCHAR
STARTCHAR 141
ENCODING 141
SWIDTH 1008 0
DWIDTH 14 0
BBX 13 20 1 -13
BITMAP
2A10
2A18
3E30
1E18
1E30
1E18
3F30
3F98
7F90
7FD8
7FF0
FD70
FB60
E7A0
CF90
FF80
FF80
D580
AA80
AA80
ENDCHAR
STARTCHAR 142
ENCODING 142
SWIDTH 1008 0
DWIDTH 14 0
BBX 14 17 0 -13
BITMAP
0380
07C0
0FF0
3FF8
DFF4
E7CC
F3BC
FC7C
FEFC
FEFC
FEFC
FEFC
7EFC
3EF8
0EE0
06C0
0100
ENDCHAR
STARTCHAR 143
ENCODING 143
SWIDTH 1008 0
DWIDTH 14 0
BBX 14 20 0 -13
BITMAP
8000
4004
0008
2000
1010
0020
0800
0440
0080
0200
0100
0200
0080
0440
0800
0020
1010
2000
0008
4004
ENDCHAR
STARTCHAR 144
ENCODING 144
SWIDTH 1008 0
DWIDTH 14 0
BBX 14 20 0 -13
BITMAP
8000
4004
0008
2000
1010
0020
0800
0440
0080
0200
0100
0200
0080
0440
0800
0020
1010
2000
0008
4004
ENDCHAR
STARTCHAR 145
ENCODING 145
SWIDTH 1008 0
DWIDTH 14 0
BBX 14 20 0 -13
BITMAP
BBF4
EF7C
7FEC
FDAC
AFD4
FF7C
FFD4
D7FC
FDEC
FDF8
DF9C
FFFC
FFBC
EFFC
FE7C
FE7C
FFFC
75CC
FFC4
FBBC
ENDCHAR
STARTCHAR 146
ENCODING 146
SWIDTH 1008 0
DWIDTH 14 0
BBX 14 20 0 -13
BITMAP
FFFC
7BDC
7BDC
3188
8420
FFFC
7BDC
7BDC
3188
8420
FFFC
7BDC
7BDC
3188
8420
FFFC
7BDC
7BDC
3188
8420
ENDCHAR
STARTCHAR 147
ENCODING 147
SWIDTH 1008 0
DWIDTH 14 0
BBX 11 14 2 -11
BITMAP
0400
0400
0E00
1500
1D00
2680
5540
FFC0
AAA0
7AA0
5440
3E80
1500
0C00
ENDCHAR
STARTCHAR 148
ENCODING 148
SWIDTH 1008 0
DWIDTH 14 0
BBX 14 19 0 -13
BITMAP
3A58
7F7C
5DFC
0000
0000
FBFC
F6FC
FFFC
39F8
0000
FFFC
FCF8
7CF8
BA44
0000
3CF4
7DF8
3CFC
1CA4
ENDCHAR
STARTCHAR 149
ENCODING 149
SWIDTH 1008 0
DWIDTH 14 0
BBX 14 20 0 -13
BITMAP
FBDC
7BFC
9D7C
FAC4
67FC
16FC
EB7C
6F74
7DCC
F2F0
1DD8
FFFC
697C
7ABC
EE24
8BF8
67F0
FD6C
9ED8
EAF4
ENDCHAR
STARTCHAR 150
ENCODING 150
SWIDTH 1008 0
DWIDTH 14 0
BBX 14 19 0 -13
BITMAP
B83C
EEEC
FEFC
D434
0000
22FC
F3EC
77BC
C2EC
0000
D85C
FAFC
7EFC
D06C
0000
63F4
F6FC
D7FC
F5FC
ENDCHAR
STARTCHAR 151
ENCODING 151
SWIDTH 1008 0
DWIDTH 14 0
BBX 13 13 1 -9
BITMAP
0008
0010
0020
3828
7C70
FF78
FFF0
C3E0
9988
3C18
7678
E3E0
C000
ENDCHAR
STARTCHAR 152
ENCODING 152
SWIDTH 1008 0
DWIDTH 14 0
BBX 14 15 0 -11
BITMAP
0004
000C
001C
0038
0070
00E0
01C0
2380
2700
1E00
1C00
3C00
7300
6000
C000
ENDCHAR
STARTCHAR 153
ENCODING 153
SWIDTH 1008 0
DWIDTH 14 0
BBX 11 19 1 -13
BITMAP
C000
7000
7000
3E00
3F80
3FC0
39E0
3860
3860
3FC0
3FE0
3860
3820
3860
1FE0
2FC0
3600
7800
F000
ENDCHAR
STARTCHAR 154
ENCODING 154
SWIDTH 1008 0
DWIDTH 14 0
BBX 12 15 1 -11
BITMAP
0020
0FE0
3FE0
7FE0
FBE0
FCA0
E4E0
F000
C000
C000
C400
FF70
FEC0
7F80
3F00
ENDCHAR
STARTCHAR 155
ENCODING 155
SWIDTH 1008 0
DWIDTH 14 0
BBX 14 16 0 -13
BITMAP
1FC0
1FE0
1FF0
1C78
1C3C
3C3C
7C1C
F41C
741C
3C1C
1C1C
1C3C
1C38
1FF0
1FF0
1FC0
ENDCHAR
STARTCHAR 156
ENCODING 156
SWIDTH 1008 0
DWIDTH 14 0
BBX 14 16 0 -13
BITMAP
FFE0
7FF0
3478
1C3C
1C1C
1C1C
1C1C
1C1C
1C1C
1C1C
1C1C
1C1C
1C3C
3478
7FF8
FFE0
ENDCHAR
STARTCHAR 157
ENCODING 157
SWIDTH 1008 0
DWIDTH 14 0
BBX 14 20 0 -13
BITMAP
8000
4004
0008
2000
1010
0020
0800
0440
0080
0200
0100
0200
0080
0440
0800
0020
1010
2000
0008
4004
ENDCHAR
STARTCHAR 158
ENCODING 158
SWIDTH 1008 0
DWIDTH 14 0
BBX 10 19 2 -13
BITMAP
0400
0C00
1800
1800
1000
3000
20C0
7F80
C100
0300
0300
0600
0600
0C00
0C00
2800
3800
3E00
3800
ENDCHAR
STARTCHAR 159
ENCODING 159
SWIDTH 1008 0
DWIDTH 14 0
BBX 14 16 0 -11
BITMAP
4300
6300
3600
3410
3DF0
1F4C
DDD0
6CB4
36FC
27D0
33D8
1DB0
2E0C
177C
1FCC
00D8
ENDCHAR
STARTCHAR 160
ENCODING 160
SWIDTH 1008 0
DWIDTH 14 0
BBX 13 17 1 -12
BITMAP
0780
0480
C798
C798
0000
6078
6FF8
6FF8
0F80
0F80
0000
1860
1860
0000
7870
7870
0070
ENDCHAR
STARTCHAR 161
ENCODING 161
SWIDTH 1008 0
DWIDTH 14 0
BBX 14 19 0 -12
BITMAP
8000
4184
23CC
3248
1BD8
0E70
3DA8
3FFC
FD6C
CD6C
6D6C
6C6C
07CC
0FE0
1FF0
1430
1C20
3C38
241C
ENDCHAR
STARTCHAR 162
ENCODING 162
SWIDTH 1008 0
DWIDTH 14 0
BBX 14 20 0 -13
BITMAP
03C0
1258
3E7C
37CC
E18C
E3FC
FABC
7BFC
3E78
1FF0
0FF0
0FF0
1FF0
7FF8
7FFC
303C
301C
1830
1870
3078
ENDCHAR
STARTCHAR 163
ENCODING 163
SWIDTH 1008 0
DWIDTH 14 0
BBX 13 19 1 -13
BITMAP
00C0
0068
0068
0038
0038
0018
0018
0038
0078
78F8
FFF8
FFF8
FFF8
DFF0
FFE0
FFE0
E7C0
0F80
3C00
ENDCHAR
STARTCHAR 164
ENCODING 164
SWIDTH 1008 0
DWIDTH 14 0
BBX 14 18 0 -12
BITMAP
6C00
FF00
C900
CE00
0C00
0300
1F40
4E6C
C03C
E600
0B00
1700
3F80
3F80
7FC0
FFC0
21C0
3000
ENDCHAR
STARTCHAR 165
ENCODING 165
SWIDTH 1008 0
DWIDTH 14 0
BBX 14 18 0 -12
BITMAP
0380
0440
0380
3030
33B8
7BB8
793C
F3BC
FB9C
EF6C
EC6C
CBAC
57FC
57FC
4FC4
44C4
0CC0
0CE0
ENDCHAR
STARTCHAR 166
ENCODING 166
SWIDTH 1008 0
DWIDTH 14 0
BBX 14 19 0 -13
BITMAP
003C
0378
03F0
0FFC
0EFC
0CF8
0FF8
0BBC
0BFC
0340
6FF0
F6A0
0F00
1F80
0FE0
07F0
13F4
22F8
2610
ENDCHAR
STARTCHAR 167
ENCODING 167
SWIDTH 1008 0
DWIDTH 14 0
BBX 14 14 0 -11
BITMAP
C800
7800
A800
F800
5E0C
7FC4
7FF4
3FF8
3FF0
3F78
373C
322C
322C
3600
ENDCHAR
STARTCHAR 168
ENCODING 168
SWIDTH 1008 0
DWIDTH 14 0
BBX 14 19 0 -13
BITMAP
0700
0500
07B0
07A8
0330
A370
F360
7BC4
FFCC
1FFC
0F30
0FF0
07E0
03C0
03E0
01E0
3FEC
3FFC
3BBC
ENDCHAR
STARTCHAR 169
ENCODING 169
SWIDTH 1008 0
DWIDTH 14 0
BBX 14 17 0 -12
BITMAP
3018
2808
A808
AE48
B7D8
E56C
BFF0
DFFC
F6DC
CFE4
27C8
73B4
37F0
3FB0
16F0
3130
2C68
ENDCHAR
STARTCHAR 170
ENCODING 170
SWIDTH 1008 0
DWIDTH 14 0
BBX 14 20 0 -13
BITMAP
0180
0240
A9A8
5654
ABA8
0540
03C0
07E0
07E0
4008
3298
4FF0
2FE8
1BB0
1D70
1FF0
07C0
0380
0380
07C0
ENDCHAR
STARTCHAR 171
ENCODING 171
SWIDTH 1008 0
DWIDTH 14 0
BBX 14 14 0 -10
BITMAP
3108
1110
8920
4FC0
4FC0
3870
0820
1330
7030
9860
0CEC
17C0
1120
2110
ENDCHAR
STARTCHAR 172
ENCODING 172
SWIDTH 1008 0
DWIDTH 14 0
BBX 10 17 3 -12
BITMAP
1F80
3040
70C0
40C0
31C0
1FC0
1BC0
1780
1780
0700
3E00
5C00
5C00
7800
B000
4000
8000
ENDCHAR
STARTCHAR 173
ENCODING 173
SWIDTH 1008 0
DWIDTH 14 0
BBX 14 12 0 -12
BITMAP
0008
000C
280C
3C04
5C04
7CF4
3FFC
7FFC
3FFC
7FFC
CC7C
98EC
ENDCHAR
STARTCHAR 174
ENCODING 174
SWIDTH 1008 0
DWIDTH 14 0
BBX 14 17 0 -13
BITMAP
0070
0088
0100
0254
0404
1804
34C0
68C4
840C
4804
9828
3470
18C0
FF98
4190
5A00
1200
ENDCHAR
STARTCHAR 175
ENCODING 175
SWIDTH 1008 0
DWIDTH 14 0
BBX 14 15 0 -13
BITMAP
01C0
07C4
0384
03C4
0E84
1F44
3EB4
3E3C
7E14
7E24
FEC0
FE4C
FC20
F020
1830
ENDCHAR
STARTCHAR 176
ENCODING 176
SWIDTH 1008 0
DWIDTH 14 0
BBX 7 15 4 -12
BITMAP
70
50
70
30
3C
3C
3A
3A
1A
5A
9A
1A
18
18
18
ENDCHAR
STARTCHAR 177
ENCODING 177
SWIDTH 1008 0
DWIDTH 14 0
BBX 14 19 0 -12
BITMAP
0004
003C
003C
003C
0724
0FA0
0AA0
1FA0
7730
4FD0
EEF8
CC90
D300
D300
EC80
7F80
1D80
19C0
39E0
ENDCHAR
STARTCHAR 178
ENCODING 178
SWIDTH 1008 0
DWIDTH 14 0
BBX 12 18 2 -12
BITMAP
0C00
2C10
1C20
0820
0C40
3880
2880
2D00
2E00
3400
3E00
3E00
3200
3200
6300
6300
4300
C300
ENDCHAR
STARTCHAR 179
ENCODING 179
SWIDTH 1008 0
DWIDTH 14 0
BBX 14 19 0 -12
BITMAP
1008
1008
0C30
0FB0
0000
0140
0FB0
3F3C
701C
F42C
C7EC
6008
6008
0C30
0C30
1C38
1818
300C
2004
ENDCHAR
STARTCHAR 180
ENCODING 180
SWIDTH 1008 0
DWIDTH 14 0
BBX 13 18 1 -13
BITMAP
0380
0010
0000
0078
0EF8
7FD8
7FF8
7F78
7E70
DCE0
D9F0
67E0
7FC0
7FC0
79C0
7800
3000
8000
ENDCHAR
STARTCHAR 181
ENCODING 181
SWIDTH 1008 0
DWIDTH 14 0
BBX 14 13 0 -10
BITMAP
3F00
7FE4
F7F8
61F0
7838
3FFC
3FFC
000C
000C
3FF8
5FFC
F800
7000
ENDCHAR
STARTCHAR 182
ENCODING 182
SWIDTH 1008 0
DWIDTH 14 0
BBX 13 18 1 -13
BITMAP
E2A0
E2A0
E3E0
0000
4140
4800
5DD8
5418
6260
47F0
4550
47F8
4C20
4810
4010
5818
5818
4000
ENDCHAR
STARTCHAR 183
ENCODING 183
SWIDTH 1008 0
DWIDTH 14 0
BBX 14 20 0 -13
BITMAP
0840
4490
2F20
1FC4
7AF8
8FC0
2FF0
0CC8
1D60
3FF0
271C
E788
07C0
0FC0
0FE0
1FE0
1FF0
3FF0
33F0
1800
ENDCHAR
STARTCHAR 184
ENCODING 184
SWIDTH 1008 0
DWIDTH 14 0
BBX 12 13 1 -10
BITMAP
8840
D7C0
68A0
37D0
5FB0
59B0
B970
5FB0
BF50
68A0
D7C0
8840
0020
ENDCHAR
STARTCHAR 185
ENCODING 185
SWIDTH 1008 0
DWIDTH 14 0
BBX 14 19 0 -13
BITMAP
0440
0440
C380
4380
2380
3024
0BBC
3FBC
77BC
E36C
F8AC
F17C
3DA8
0CB8
1030
1030
1000
1830
301C
ENDCHAR
STARTCHAR 186
ENCODING 186
SWIDTH 1008 0
DWIDTH 14 0
BBX 14 18 0 -12
BITMAP
0008
0014
0014
0788
0488
04E8
1EA8
3308
2348
4868
B3C8
8308
7028
1318
2318
2798
EFF8
7FE8
ENDCHAR
STARTCHAR 187
ENCODING 187
SWIDTH 1008 0
DWIDTH 14 0
BBX 12 17 0 -12
BITMAP
0080
01C0
03E0
0320
0F30
0FF0
8FF0
4FF0
3BC0
13E0
07E0
07F0
07F0
0FF0
0FF0
0C20
0C30
ENDCHAR
STARTCHAR 188
ENCODING 188
SWIDTH 1008 0
DWIDTH 14 0
BBX 14 18 0 -13
BITMAP
C380
C680
2780
0B80
3D38
3F7C
6C7C
4D7C
277C
0B5C
0B5C
1338
58B0
30B0
3040
3020
40E0
E030
ENDCHAR
STARTCHAR 189
ENCODING 189
SWIDTH 1008 0
DWIDTH 14 0
BBX 14 20 0 -13
BITMAP
2090
2090
37C8
5F78
7F68
7F68
7838
7018
DC68
DC68
7C74
3C54
1874
3B10
3B18
1320
2C60
2480
2480
4488
ENDCHAR
STARTCHAR 190
ENCODING 190
SWIDTH 1008 0
DWIDTH 14 0
BBX 14 20 0 -13
BITMAP
01F0
0150
01F0
1F90
3CF0
71F8
E59C
E85C
C10C
CA0C
62CC
6ACC
14E8
2820
3720
35B0
F6BC
F33C
F03C
3000
ENDCHAR
STARTCHAR 191
ENCODING 191
SWIDTH 1008 0
DWIDTH 14 0
BBX 14 18 0 -12
BITMAP
0004
003C
002C
00FC
0030
0FFC
1FFC
7FC0
7FC0
FFF0
FFF0
FFF0
FFB8
DFA4
C9C0
C8C0
EC00
6400
ENDCHAR
STARTCHAR 192
ENCODING 192
SWIDTH 1008 0
DWIDTH 14 0
BBX 13 16 1 -11
BITMAP
03C0
0770
C7E0
C7C0
6788
63B8
67E0
6FF8
3F80
0F00
0F00
1A00
1A00
1B00
0980
0C00
ENDCHAR
STARTCHAR 193
ENCODING 193
SWIDTH 1008 0
DWIDTH 14 0
BBX 14 16 0 -12
BITMAP
0FF0
3FFC
F80C
F7EC
EFF4
EC34
DC34
DCB4
DCF4
EFBC
37D8
3850
3FF8
0F9C
000C
0004
ENDCHAR
STARTCHAR 194
ENCODING 194
SWIDTH 1008 0
DWIDTH 14 0
BBX 13 10 0 -13
BITMAP
01C0
1FF0
77F8
FFF8
3FF8
05F8
0C88
0008
0008
0018
ENDCHAR
STARTCHAR 195
ENCODING 195
SWIDTH 1008 0
DWIDTH 14 0
BBX 14 20 0 -13
BITMAP
0600
0F30
1998
3DCC
7FCC
F7E4
CFE4
3FE4
7DF4
F3F4
07F4
4DF4
3DFC
49FC
21FC
0378
0338
0338
0330
0230
ENDCHAR
STARTCHAR 196
ENCODING 196
SWIDTH 1008 0
DWIDTH 14 0
BBX 11 19 2 -13
BITMAP
3C00
EE00
FE00
3F00
FF00
3FA0
7FA0
5FA0
1FA0
3FE0
1FE0
1FE0
1FC0
1F80
3F80
3F80
1980
1980
7180
ENDCHAR
STARTCHAR 197
ENCODING 197
SWIDTH 1008 0
DWIDTH 14 0
BBX 14 19 0 -13
BITMAP
0180
0380
5390
0124
D198
9808
4310
3C40
02A0
0280
0280
0100
06C0
0280
0080
04C0
0080
0480
0440
ENDCHAR
STARTCHAR 198
ENCODING 198
SWIDTH 1008 0
DWIDTH 14 0
BBX 14 19 0 -13
BITMAP
0C00
0700
7180
5C80
0480
73FC
FFBC
C6FC
83BC
3EE0
67FC
63AC
C3F4
C3D0
0258
0248
0248
0248
0048
ENDCHAR
STARTCHAR 199
ENCODING 199
SWIDTH 1008 0
DWIDTH 14 0
BBX 14 17 0 -12
BITMAP
0180
0240
1BD8
0E70
3DA8
3FFC
FFEC
CC6C
6EEC
6EEC
06CC
0FE0
1FF0
1430
1C20
3C38
241C
ENDCHAR
STARTCHAR 200
ENCODING 200
SWIDTH 1008 0
DWIDTH 14 0
BBX 11 12 2 -12
BITMAP
3F00
6E80
ECC0
B3C0
D9E0
C0E0
F120
F1E0
F0E0
E4E0
4CC0
7FC0
ENDCHAR
STARTCHAR 201
ENCODING 201
SWIDTH 1008 0
DWIDTH 14 0
BBX 14 19 0 -13
BITMAP
0480
2488
3498
4CC4
8FC0
F2A4
5838
A828
81BC
D434
0274
3680
0E40
0C20
0C10
0C10
0410
0860
0240
ENDCHAR
STARTCHAR 202
ENCODING 202
SWIDTH 1008 0
DWIDTH 14 0
BBX 12 17 1 -12
BITMAP
0D80
0780
0380
03F0
C7C0
6FE0
2FB0
2E00
3F00
3F80
1F80
0EC0
0360
0400
0400
0C00
0800
ENDCHAR
STARTCHAR 203
ENCODING 203
SWIDTH 1008 0
DWIDTH 14 0
BBX 13 19 1 -13
BITMAP
0600
0F80
1700
5240
E730
2520
2540
4040
2020
0020
28A0
28A0
2520
2720
2220
6020
6990
F8F8
1980
ENDCHAR
STARTCHAR 204
ENCODING 204
SWIDTH 1008 0
DWIDTH 14 0
BBX 14 18 0 -13
BITMAP
03E0
03E0
0CE0
0C60
0C20
1FF0
3FF8
7FFC
E3EC
C7E4
C7E0
0FF0
0FF0
0FF0
1FF0
3FF0
3FF0
01F0
ENDCHAR
STARTCHAR 205
ENCODING 205
SWIDTH 1008 0
DWIDTH 14 0
BBX 13 20 1 -13
BITMAP
2A10
2A18
3E10
1218
1210
1E18
2D10
2198
7E90
7FD8
7FF0
FD70
FB60
E7A0
C790
DF80
FF80
FF80
6180
79C0
ENDCHAR
STARTCHAR 206
ENCODING 206
SWIDTH 1008 0
DWIDTH 14 0
BBX 14 20 0 -13
BITMAP
1F00
1530
1FFC
1374
33AC
1FDC
12DC
10DC
18DC
10F8
0CF8
1CEC
38C8
618C
E34C
E384
D304
9304
6304
070C
ENDCHAR
STARTCHAR 207
ENCODING 207
SWIDTH 1008 0
DWIDTH 14 0
BBX 14 13 0 -8
BITMAP
3000
3C00
1F00
0300
FFC0
FFF0
1FFC
FFFC
1FFC
73FC
CE7C
180C
3000
ENDCHAR
STARTCHAR 208
ENCODING 208
SWIDTH 1008 0
DWIDTH 14 0
BBX 14 19 0 -13
BITMAP
0380
0100
0380
0080
9300
0ACC
5FEC
5278
0380
0540
02C0
0540
0AC0
0CC0
0C40
0080
04C0
04C0
1C70
ENDCHAR
STARTCHAR 209
ENCODING 209
SWIDTH 1008 0
DWIDTH 14 0
BBX 14 17 0 -13
BITMAP
FFE0
73F0
3BF8
1E3C
0E3C
0E3C
FE3C
323C
1A3C
0E3C
0E3C
0E3C
FE3C
3238
1BF0
0FE0
0FC0
ENDCHAR
STARTCHAR 210
ENCODING 210
SWIDTH 1008 0
DWIDTH 14 0
BBX 14 19 0 -13
BITMAP
FFC0
7FE0
3BF0
1278
1E3C
FE3C
3A1C
121C
1E1C
FE1C
7A1C
321C
1E1C
1E1C
7A3C
3278
1FF0
0FF0
0FC0
ENDCHAR
STARTCHAR 211
ENCODING 211
SWIDTH 1008 0
DWIDTH 14 0
BBX 11 16 2 -11
BITMAP
FF80
7FC0
70C0
7060
7060
7560
7060
7060
7060
7260
70E0
71C0
7FC0
FFC0
6BC0
D120
ENDCHAR
STARTCHAR 212
ENCODING 212
SWIDTH 1008 0
DWIDTH 14 0
BBX 14 18 0 -13
BITMAP
3FF0
7FF0
FC38
DC1C
DD5C
9D5C
9C1C
1C1C
1D9C
1D9C
1C3C
3C78
3FF0
FFF0
34F8
3428
6C6C
C880
ENDCHAR
STARTCHAR 213
ENCODING 213
SWIDTH 1008 0
DWIDTH 14 0
BBX 14 14 0 -10
BITMAP
FFC0
7FE0
3FF0
3038
F13C
711C
311C
311C
F7DC
739C
313C
303C
1FF0
1FF0
ENDCHAR
STARTCHAR 214
ENCODING 214
SWIDTH 1008 0
DWIDTH 14 0
BBX 11 15 2 -12
BITMAP
0200
0700
0F80
1CC0
3860
70E0
FDC0
CF80
C700
6000
3040
38C0
1F80
0F00
0600
ENDCHAR
STARTCHAR 215
ENCODING 215
SWIDTH 1008 0
DWIDTH 14 0
BBX 10 17 2 -11
BITMAP
1100
3300
7F00
FFC0
C0C0
C0C0
C000
C000
FE00
FE00
C000
C000
C000
FFC0
FFC0
3600
2400
ENDCHAR
STARTCHAR 216
ENCODING 216
SWIDTH 1008 0
DWIDTH 14 0
BBX 11 18 2 -13
BITMAP
0400
0E00
1F00
3F80
71C0
E1E0
E1E0
71C0
3F80
1EC0
0FC0
1F00
1A00
3200
2600
2600
3E00
1800
ENDCHAR
STARTCHAR 217
ENCODING 217
SWIDTH 1008 0
DWIDTH 14 0
BBX 12 16 1 -10
BITMAP
0010
0F30
3FF0
7FF0
78F0
E030
E030
C000
C040
C0C0
C3E0
C7E0
E060
F060
7FE0
3FC0
ENDCHAR
STARTCHAR 218
ENCODING 218
SWIDTH 1008 0
DWIDTH 14 0
BBX 12 14 2 -10
BITMAP
1000
1000
3000
7180
F180
3000
3000
3000
3F00
3F00
3300
3310
33B0
33F0
ENDCHAR
STARTCHAR 219
ENCODING 219
SWIDTH 1008 0
DWIDTH 14 0
BBX 12 14 2 -10
BITMAP
1180
1240
3200
71C0
F040
3240
3180
3000
3E00
3F00
3300
3310
33B0
33F0
ENDCHAR
STARTCHAR 220
ENCODING 220
SWIDTH 1008 0
DWIDTH 14 0
BBX 12 17 1 -12
BITMAP
1810
1870
7060
F0E0
7060
3060
3060
7060
7FE0
7060
3060
3060
7060
7060
78F0
7060
2060
ENDCHAR
STARTCHAR 221
ENCODING 221
SWIDTH 1008 0
DWIDTH 14 0
BBX 13 17 0 -13
BITMAP
0010
0030
0078
0030
0000
0010
0010
0030
0030
0030
0030
6030
F060
98E0
9DC0
0FC0
0700
ENDCHAR
STARTCHAR 222
ENCODING 222
SWIDTH 1008 0
DWIDTH 14 0
BBX 14 16 0 -11
BITMAP
03FC
03FC
00F8
00F0
0070
0050
0050
0070
0070
FC70
FC50
7050
30F0
39F0
3FE0
0FC0
ENDCHAR
STARTCHAR 223
ENCODING 223
SWIDTH 1008 0
DWIDTH 14 0
BBX 12 17 1 -12
BITMAP
FC00
4C00
2C00
1400
1C00
1400
1400
1C00
1400
1C00
1410
1C30
1470
1FD0
3330
7FF0
7FF0
ENDCHAR
STARTCHAR 224
ENCODING 224
SWIDTH 1008 0
DWIDTH 14 0
BBX 14 17 0 -12
BITMAP
FFC0
7FC0
3F00
1F00
1F00
1F00
1F00
1F00
1F00
1F00
1F04
1F0C
1F1C
1FFC
1FFC
3FFC
7FFC
ENDCHAR
STARTCHAR 225
ENCODING 225
SWIDTH 1008 0
DWIDTH 14 0
BBX 11 12 1 -13
BITMAP
FF80
7FC0
38E0
3860
3860
3F80
3F00
3000
3000
3000
3000
2000
ENDCHAR
STARTCHAR 226
ENCODING 226
SWIDTH 1008 0
DWIDTH 14 0
BBX 12 14 1 -13
BITMAP
FFC0
7FE0
3C60
1C70
1C70
7C70
7C70
1FE0
1BC0
1800
1800
1800
1800
1000
ENDCHAR
STARTCHAR 227
ENCODING 227
SWIDTH 1008 0
DWIDTH 14 0
BBX 13 14 0 -13
BITMAP
FFE0
77E0
3438
1C38
FC38
7438
3438
1FF0
FFE0
7400
3400
1C00
1C00
1C00
ENDCHAR
STARTCHAR 228
ENCODING 228
SWIDTH 1008 0
DWIDTH 14 0
BBX 10 17 2 -13
BITMAP
0800
0000
8840
0900
0000
FFC0
7FC0
71C0
30C0
30C0
3F80
3000
3800
3800
3800
3800
1000
ENDCHAR
STARTCHAR 229
ENCODING 229
SWIDTH 1008 0
DWIDTH 14 0
BBX 13 18 0 -13
BITMAP
0C08
1F18
31F0
20E0
0000
0000
FFF0
3FF8
1C38
1C38
FC38
3C38
1FF0
FFE0
3C00
1C00
1C00
1C00
ENDCHAR
STARTCHAR 230
ENCODING 230
SWIDTH 1008 0
DWIDTH 14 0
BBX 11 16 1 -13
BITMAP
3F80
3F80
0000
0000
0000
FF80
7FC0
3860
3860
38C0
3F80
3000
3000
3000
3000
2000
ENDCHAR
STARTCHAR 231
ENCODING 231
SWIDTH 1008 0
DWIDTH 14 0
BBX 12 17 1 -13
BITMAP
3F80
3F80
0000
FFC0
7FE0
3C60
1C70
1C70
7C70
7C70
1FE0
1BC0
1800
1800
1800
1800
1000
ENDCHAR
STARTCHAR 232
ENCODING 232
SWIDTH 1008 0
DWIDTH 14 0
BBX 14 17 0 -12
BITMAP
FFC0
FFE0
FFF0
DFF0
9C38
1C38
1C1C
1C1C
1FFC
1FFC
1C00
1C00
1C00
1C00
3C00
7C00
FC00
ENDCHAR
STARTCHAR 233
ENCODING 233
SWIDTH 1008 0
DWIDTH 14 0
BBX 12 16 2 -13
BITMAP
0080
0080
0180
0780
1F80
3F80
F380
E080
E080
F380
FF80
3C80
0080
00B0
00A0
00E0
ENDCHAR
STARTCHAR 234
ENCODING 234
SWIDTH 1008 0
DWIDTH 14 0
BBX 13 19 1 -13
BITMAP
8000
C000
E000
FFC0
7FE0
79E0
7060
E070
E030
E018
E018
E018
E198
E198
61F0
7860
3FF0
1FB8
0008
ENDCHAR
STARTCHAR 235
ENCODING 235
SWIDTH 1008 0
DWIDTH 14 0
BBX 13 19 1 -13
BITMAP
8010
C030
E070
FFF0
7FE0
79E0
7060
E070
E030
E018
E018
E018
E198
E198
61F0
7860
3FF0
1FB8
0008
ENDCHAR
STARTCHAR 236
ENCODING 236
SWIDTH 1008 0
DWIDTH 14 0
BBX 13 17 0 -12
BITMAP
C300
6FC0
3FE0
3870
1830
1830
1870
1FE0
1F80
1BC0
1BC0
18E0
18E0
1030
1030
1008
1008
ENDCHAR
STARTCHAR 237
ENCODING 237
SWIDTH 1008 0
DWIDTH 14 0
BBX 14 12 0 -13
BITMAP
03F4
0FF8
3E1C
1E00
0FC0
07C0
00F0
F0F0
3FC0
3FA0
2E00
1100
ENDCHAR
STARTCHAR 238
ENCODING 238
SWIDTH 1008 0
DWIDTH 14 0
BBX 13 16 1 -12
BITMAP
03C0
1FE0
1FE0
3C78
3838
3020
3800
1F00
07C0
01E0
4060
6060
FFE0
FFC0
9F80
9F00
ENDCHAR
STARTCHAR 239
ENCODING 239
SWIDTH 1008 0
DWIDTH 14 0
BBX 11 12 2 -11
BITMAP
2080
2080
60C0
60C0
C0E0
C0E0
C0E0
E0E0
F1E0
FFC0
7FC0
1F00
ENDCHAR
STARTCHAR 240
ENCODING 240
SWIDTH 1008 0
DWIDTH 14 0
BBX 12 20 2 -13
BITMAP
8000
8000
C000
C000
C000
C1F0
C0E0
E0E0
E0E0
E0E0
E0E0
E0E0
E0E0
E0E0
E0E0
E0E0
E0E0
7FC0
7FC0
1F00
ENDCHAR
STARTCHAR 241
ENCODING 241
SWIDTH 1008 0
DWIDTH 14 0
BBX 11 20 2 -13
BITMAP
8020
8020
C020
C020
C060
C060
E0E0
E0E0
E0E0
E0E0
EAE0
EAE0
E0E0
E0E0
E0E0
E0E0
E0E0
70C0
3FC0
1F00
ENDCHAR
STARTCHAR 242
ENCODING 242
SWIDTH 1008 0
DWIDTH 14 0
BBX 13 20 1 -13
BITMAP
8008
8008
98D8
8D98
C518
E038
E638
E678
E078
E078
E078
E078
E078
E078
E078
7070
78F0
3DE0
1FE0
0F80
ENDCHAR
STARTCHAR 243
ENCODING 243
SWIDTH 1008 0
DWIDTH 14 0
BBX 14 12 0 -12
BITMAP
6018
7018
3038
B830
3C74
1C60
0CC0
2EC0
0FD0
0780
1320
0380
ENDCHAR
STARTCHAR 244
ENCODING 244
SWIDTH 1008 0
DWIDTH 14 0
BBX 14 16 0 -12
BITMAP
2820
1050
0000
0280
0100
701C
3038
B830
1C74
0C60
0CC0
2EC0
07D0
0380
0300
0300
ENDCHAR
STARTCHAR 245
ENCODING 245
SWIDTH 1008 0
DWIDTH 14 0
BBX 13 17 1 -12
BITMAP
1FC0
1FC0
1FC0
0000
0000
0000
E038
6070
3060
B8E8
18C0
1980
5D80
0FA0
0700
0700
0200
ENDCHAR
STARTCHAR 246
ENCODING 246
SWIDTH 1008 0
DWIDTH 14 0
BBX 14 11 0 -10
BITMAP
A800
A83C
F83C
3018
3018
3110
3BB0
3BF0
1EF0
1C60
0800
ENDCHAR
STARTCHAR 247
ENCODING 247
SWIDTH 1008 0
DWIDTH 14 0
BBX 13 20 1 -13
BITMAP
8000
8000
8000
8000
8000
C020
C008
C020
E010
E008
E028
E018
E030
6738
6FB8
7DF8
79F0
7070
6070
4030
ENDCHAR
STARTCHAR 248
ENCODING 248
SWIDTH 1008 0
DWIDTH 14 0
BBX 13 18 1 -13
BITMAP
0180
8008
9808
8198
C018
C018
C018
C018
E038
E030
E230
6730
6FB0
7DF0
79F0
7060
6060
4000
ENDCHAR
STARTCHAR 249
ENCODING 249
SWIDTH 1008 0
DWIDTH 14 0
BBX 13 20 1 -13
BITMAP
8008
8008
8008
8018
8018
C018
C018
E238
E238
E238
E638
E638
E638
E738
EFB8
F9F8
F8F8
E078
E078
C018
ENDCHAR
STARTCHAR 250
ENCODING 250
SWIDTH 1008 0
DWIDTH 14 0
BBX 13 10 1 -10
BITMAP
3FF8
7FE0
E0C0
8180
0700
0600
1C08
1818
7FF0
7FE0
ENDCHAR
STARTCHAR 251
ENCODING 251
SWIDTH 1008 0
DWIDTH 14 0
BBX 10 14 2 -10
BITMAP
FFC0
FFC0
C0C0
C0C0
C0C0
0380
0700
0E00
1C00
3800
7040
F0C0
FFC0
FFC0
ENDCHAR
STARTCHAR 252
ENCODING 252
SWIDTH 1008 0
DWIDTH 14 0
BBX 14 18 0 -12
BITMAP
1FF8
1FF8
1818
FF18
7E38
3C70
18E0
01C0
0300
0700
0C00
1C00
1FF8
1FF8
0008
0008
001C
0008
ENDCHAR
STARTCHAR 253
ENCODING 253
SWIDTH 1008 0
DWIDTH 14 0
BBX 10 17 2 -12
BITMAP
FFC0
ED00
D2C0
B4C0
00C0
0180
03C0
06C0
0F00
3600
3C00
D800
F000
7FC0
ED00
D2C0
B4C0
ENDCHAR
STARTCHAR 254
ENCODING 254
SWIDTH 1008 0
DWIDTH 14 0
BBX 14 17 0 -12
BITMAP
FFFC
7FFC
3FFC
1FFC
003C
007C
00F0
01F0
03C0
0F80
0F00
3E00
3C00
7FE0
7FF0
7FF8
7FFC
ENDCHAR
STARTCHAR 255
ENCODING 255
SWIDTH 1008 0
DWIDTH 14 0
BBX 13 16 1 -13
BITMAP
71E0
F9F0
DFB0
8E30
0060
00E0
0180
0700
0600
1C00
1800
7000
6388
FFD8
FFF0
6070
ENDCHAR
ENDFONT
